<?xml version="1.0" standalone="no"?>
<!DOCTYPE svg PUBLIC "-//W3C//DTD SVG 20010904//EN"
 "http://www.w3.org/TR/2001/REC-SVG-20010904/DTD/svg10.dtd">
<svg version="1.0" xmlns="http://www.w3.org/2000/svg"
 width="260.000000pt" height="260.000000pt" viewBox="0 0 260.000000 260.000000"
 preserveAspectRatio="xMidYMid meet">
<metadata>
Created by potrace 1.11, written by Peter Selinger 2001-2013
</metadata>
<g transform="translate(0.000000,260.000000) scale(0.100000,-0.100000)"
fill="#000000" stroke="none">
<path d="M0 1300 l0 -1300 1300 0 1300 0 0 1300 0 1300 -1300 0 -1300 0 0
-1300z m2530 880 l0 -350 -455 0 -455 0 0 350 0 350 455 0 455 0 0 -350z
m-490 -774 l0 -353 -31 -7 c-17 -3 -112 -6 -210 -6 l-179 0 0 360 0 360 210 0
210 0 0 -354z m492 322 c2 -18 5 -178 7 -355 l3 -323 -216 0 -216 0 0 348 c0
192 3 352 7 355 3 4 97 7 209 7 l202 0 4 -32z m3 -923 l0 -160 -457 -3 -458
-2 0 159 0 160 48 4 c26 2 232 3 457 3 l410 -1 0 -160z m-993 43 c1 -62 2
-133 2 -158 l1 -45 -347 -3 -348 -2 0 160 0 160 345 0 345 0 2 -112z m8 -439
l0 -149 -350 0 -350 0 0 150 0 150 268 2 c147 2 304 2 350 0 l82 -4 0 -149z
m-775 -284 l0 -60 -352 -3 -353 -2 0 60 0 59 113 3 c61 2 220 3 352 3 l240 0
0 -60z"/>
</g>
</svg>
