<?xml version="1.0" standalone="no"?>
<!DOCTYPE svg PUBLIC "-//W3C//DTD SVG 20010904//EN"
 "http://www.w3.org/TR/2001/REC-SVG-20010904/DTD/svg10.dtd">
<svg version="1.0" xmlns="http://www.w3.org/2000/svg"
 width="460.000000pt" height="460.000000pt" viewBox="0 0 460.000000 460.000000"
 preserveAspectRatio="xMidYMid meet">
<metadata>
Created by potrace 1.11, written by Peter Selinger 2001-2013
</metadata>
<g transform="translate(0.000000,460.000000) scale(0.100000,-0.100000)"
fill="#000000" stroke="none">
<path d="M1940 4282 c0 -9 -7 -11 -22 -7 -13 3 -18 3 -13 -2 14 -11 18 -36 5
-28 -5 3 -13 -1 -16 -10 -4 -9 -17 -20 -30 -25 -16 -6 -22 -15 -19 -29 2 -11
-1 -24 -7 -27 -6 -4 -8 -2 -4 4 3 6 1 14 -5 18 -7 4 -9 3 -5 -4 3 -5 0 -13 -6
-15 -10 -4 -10 -6 0 -6 6 -1 12 -12 12 -25 0 -13 6 -27 13 -29 10 -4 10 -6 0
-6 -7 -1 -13 -8 -13 -17 0 -9 5 -12 12 -8 7 5 8 3 2 -7 -13 -21 -17 -62 -4
-54 16 10 12 -1 -7 -16 -10 -8 -14 -9 -10 -2 4 6 3 14 -2 17 -5 4 -8 -2 -6
-11 2 -10 4 -22 4 -27 1 -5 9 -2 19 5 15 12 15 11 -1 -8 -14 -16 -15 -23 -6
-29 8 -5 10 -3 4 6 -5 9 -4 11 4 6 6 -4 9 -12 5 -17 -3 -5 -10 -6 -16 -3 -8 5
-9 1 -4 -12 5 -10 9 -26 9 -34 0 -8 5 -18 11 -22 8 -5 7 -8 -1 -8 -7 0 -13 -7
-13 -16 0 -9 5 -12 13 -8 9 6 9 5 0 -7 -6 -8 -11 -17 -10 -21 1 -3 -1 -10 -5
-14 -4 -3 -5 3 -3 15 2 12 0 19 -5 16 -13 -8 -3 -48 17 -64 15 -12 16 -13 1
-8 -23 8 -31 -4 -11 -18 13 -9 13 -14 3 -20 -9 -6 -11 -4 -5 5 5 9 4 11 -4 6
-6 -4 -9 -12 -6 -17 4 -5 8 -19 10 -30 3 -12 7 -24 10 -28 4 -3 4 7 1 22 -2
14 -1 29 3 31 4 3 7 -15 7 -39 -1 -33 2 -41 12 -33 9 8 12 6 13 -8 1 -11 1
-23 0 -28 -1 -5 4 -4 12 2 11 10 17 9 28 -5 13 -17 13 -17 -6 -3 -18 14 -19
14 -7 -2 8 -10 20 -14 29 -11 11 4 14 2 9 -5 -4 -7 -4 -12 1 -13 4 0 17 -2 28
-4 11 -2 30 5 41 16 21 20 22 20 33 2 9 -16 10 -16 11 -1 0 19 33 41 45 30 4
-4 2 4 -5 18 -13 24 -12 24 5 10 11 -9 16 -10 11 -2 -4 7 -2 12 8 12 8 0 18 4
21 10 3 5 0 7 -9 4 -14 -5 -15 4 -3 36 15 41 15 51 1 65 -9 8 -12 15 -7 15 5
0 15 -6 22 -12 10 -11 10 -8 0 14 -6 15 -16 25 -21 21 -6 -3 -2 7 8 22 17 27
17 28 -2 43 -15 12 -16 14 -2 9 10 -3 20 -2 23 3 4 6 -1 10 -10 10 -12 0 -15
6 -10 21 6 16 4 20 -6 13 -11 -6 -12 -5 -2 8 7 8 9 19 5 23 -4 5 -2 5 5 1 6
-3 14 -2 18 4 3 5 -1 10 -10 10 -13 0 -14 4 -4 22 10 18 8 24 -7 36 -16 12
-16 14 -2 9 10 -3 20 -2 23 3 4 6 -1 10 -10 10 -12 0 -15 6 -10 21 6 16 4 20
-6 13 -11 -6 -12 -5 -2 8 7 8 9 19 5 23 -4 5 -2 5 5 1 6 -3 14 -2 18 4 3 5 -1
10 -10 10 -9 0 -13 5 -10 10 3 6 1 10 -6 10 -7 0 -9 3 -6 6 4 4 13 2 21 -5 11
-9 15 -8 19 3 4 10 1 13 -7 10 -7 -3 -19 3 -27 12 -8 10 -9 15 -3 11 7 -4 14
0 17 8 4 10 1 12 -10 8 -12 -5 -15 -2 -10 10 4 11 1 15 -13 12 -14 -3 -17 1
-13 12 5 12 2 15 -10 10 -11 -4 -14 -2 -10 9 3 7 1 14 -5 14 -6 0 -12 -5 -14
-12 -3 -7 -7 -5 -11 6 -4 10 -3 15 3 11 6 -3 10 -1 10 5 0 7 -17 10 -46 9 -31
-2 -48 1 -54 11 -7 11 -10 12 -10 2z m10 -22 c0 -5 -5 -10 -11 -10 -5 0 -7 5
-4 10 3 6 8 10 11 10 2 0 4 -4 4 -10z m19 -693 c8 -10 7 -14 -2 -14 -8 0 -14
6 -14 14 0 7 1 13 2 13 2 0 8 -6 14 -13z"/>
<path d="M2150 4081 c0 -7 -5 -9 -12 -5 -7 5 -8 3 -3 -5 5 -9 10 -10 18 -2 6
6 8 14 4 18 -4 3 -7 1 -7 -6z"/>
<path d="M1817 4053 c-10 -9 -9 -23 1 -23 5 0 9 7 9 15 0 17 -1 18 -10 8z"/>
<path d="M1147 3977 c-3 -8 1 -14 9 -14 16 0 19 13 5 21 -5 3 -11 0 -14 -7z"/>
<path d="M2838 3973 c15 -6 16 -33 1 -33 -5 0 -8 4 -5 8 3 5 -2 9 -10 9 -8 0
-13 -6 -10 -13 3 -8 0 -16 -6 -20 -7 -4 -8 -3 -4 4 4 7 2 12 -3 12 -6 0 -12
-4 -12 -10 -1 -5 -2 -14 -3 -19 0 -6 -8 -16 -16 -23 -12 -11 -12 -11 -1 5 10
13 10 17 1 17 -6 0 -14 -9 -17 -19 -3 -11 -14 -22 -25 -24 -13 -4 -19 -11 -15
-21 4 -11 1 -13 -10 -9 -11 4 -14 2 -9 -5 6 -11 -5 -16 -26 -13 -4 0 -5 -6 -2
-14 4 -9 0 -15 -10 -15 -9 0 -16 -5 -16 -11 0 -5 -6 -7 -12 -3 -9 5 -8 2 1 -9
12 -15 12 -17 -4 -11 -13 5 -16 4 -11 -4 4 -7 2 -12 -4 -12 -6 0 -8 -4 -5 -10
3 -6 -1 -7 -9 -4 -15 6 -22 -11 -17 -39 1 -5 -3 -6 -9 -2 -6 3 -7 11 -4 17 5
7 2 8 -5 4 -7 -5 -10 -14 -7 -22 3 -8 2 -13 -2 -13 -19 3 -33 -2 -27 -10 3 -5
1 -12 -5 -16 -6 -4 -8 -10 -5 -14 2 -5 -6 -7 -20 -6 -16 2 -22 -1 -19 -10 3
-7 0 -16 -7 -21 -8 -5 -10 -3 -4 6 6 9 4 11 -4 6 -7 -5 -10 -14 -7 -22 3 -8 2
-13 -2 -13 -18 3 -32 -2 -32 -12 0 -5 5 -7 12 -3 7 4 8 3 4 -4 -4 -6 -13 -9
-21 -5 -10 3 -13 1 -10 -9 5 -13 -31 -57 -41 -50 -12 7 -22 0 -19 -15 1 -10
-7 -26 -19 -36 -12 -11 -15 -17 -6 -14 10 3 15 -3 15 -19 0 -21 -1 -22 -12 -8
-11 15 -12 14 -10 -5 1 -11 8 -21 15 -21 9 0 13 -7 9 -20 -5 -21 16 -45 32
-35 7 3 8 0 5 -9 -4 -11 0 -16 11 -16 10 0 13 -4 9 -12 -6 -10 -4 -10 8 0 14
11 16 10 14 -12 -2 -14 1 -23 6 -20 5 3 15 1 22 -5 9 -8 13 -7 13 4 0 7 -5 13
-10 12 -5 -1 -12 5 -14 13 -3 9 -1 11 4 5 13 -16 47 -19 37 -3 -6 10 -5 11 7
1 9 -8 20 -9 29 -3 28 18 35 10 10 -11 -14 -11 -18 -17 -10 -13 27 13 60 47
60 61 0 8 4 12 9 9 5 -3 15 2 22 11 10 12 10 14 2 9 -7 -4 -13 -2 -13 3 0 6
10 11 23 11 18 0 19 2 7 11 -12 9 -11 10 7 6 19 -4 21 -2 13 13 -8 15 -6 17
12 12 17 -4 20 -2 15 11 -4 12 -1 15 14 12 17 -4 19 -2 8 11 -10 12 -9 13 6 8
14 -6 16 -4 10 6 -6 10 -4 12 8 7 11 -4 14 -2 10 9 -3 7 0 14 7 14 6 0 23 9
37 20 14 11 21 20 16 20 -6 0 -16 -7 -23 -15 -7 -8 -17 -15 -23 -15 -5 0 2 9
16 20 14 11 31 20 37 20 9 0 9 4 -1 17 -13 15 -12 15 11 3 22 -12 24 -12 12 2
-9 11 -10 18 -2 23 5 3 10 1 10 -5 0 -6 4 -9 10 -5 5 3 7 12 3 20 -3 11 -1 13
10 9 8 -3 18 0 23 7 5 8 3 10 -6 4 -9 -6 -11 -4 -6 4 5 7 14 10 22 7 8 -3 11
0 7 10 -3 9 1 14 13 14 16 0 17 2 4 11 -12 9 -11 10 7 6 19 -4 21 -2 13 12 -6
13 -5 18 5 18 8 0 11 -5 8 -11 -4 -6 3 -2 15 8 26 22 28 30 6 22 -9 -3 -12 -2
-8 5 3 6 14 9 24 6 13 -3 17 0 13 9 -3 9 1 14 12 14 9 0 13 5 10 10 -3 6 2 10
12 10 15 0 16 2 3 11 -12 9 -11 10 7 6 19 -4 20 -2 10 13 -6 10 -15 16 -21 13
-5 -3 -6 -1 -2 6 4 6 11 9 16 6 5 -3 12 0 16 6 4 8 3 9 -4 5 -7 -4 -12 -2 -12
4 0 6 -4 9 -8 6 -5 -3 -9 2 -9 10 0 10 4 11 11 4 15 -15 25 -12 22 8 -2 9 -8
18 -14 18 -33 4 -35 6 -17 14 18 8 18 9 -5 9 -20 1 -22 3 -10 11 13 8 12 10
-3 10 -10 0 -20 7 -24 16 -3 8 -12 13 -19 10 -8 -3 -21 5 -30 19 -9 14 -22 21
-30 18 -8 -3 -12 -8 -9 -12 2 -4 -2 -8 -10 -8 -8 0 -12 4 -10 8 5 7 -19 20
-33 18 -4 0 -1 -3 6 -6z m69 -25 c-3 -8 -6 -5 -6 6 -1 11 2 17 5 13 3 -3 4
-12 1 -19z m-347 -652 c0 -3 -4 -8 -10 -11 -5 -3 -10 -1 -10 4 0 6 5 11 10 11
6 0 10 -2 10 -4z"/>
<path d="M2931 3968 c-1 -21 15 -32 25 -17 4 7 3 9 -4 5 -6 -3 -13 2 -15 11
-4 16 -5 16 -6 1z"/>
<path d="M1086 3958 c3 -4 11 -5 18 -2 8 3 17 1 20 -4 6 -10 -37 -8 -55 4 -8
5 -9 3 -4 -6 6 -10 4 -12 -10 -6 -14 5 -16 4 -6 -7 9 -12 7 -14 -10 -13 -14 1
-23 -6 -25 -18 -1 -10 -7 -23 -13 -29 -15 -15 -14 -30 1 -21 7 4 8 3 4 -5 -6
-9 -12 -9 -24 1 -10 7 -14 9 -10 4 3 -4 2 -21 -2 -36 -6 -20 -5 -29 2 -27 6 1
13 -4 16 -12 3 -9 0 -11 -8 -6 -10 6 -11 4 -4 -6 5 -8 9 -17 9 -21 0 -12 12
-14 22 -4 4 5 3 7 -3 3 -6 -3 -11 1 -11 9 0 34 25 -12 29 -53 1 -6 8 -9 16 -5
11 4 13 1 7 -8 -5 -9 -4 -11 4 -6 14 9 59 -25 53 -42 -2 -6 1 -12 8 -12 6 0 8
-5 4 -12 -5 -7 -2 -9 7 -6 8 3 23 0 34 -8 10 -8 14 -14 9 -14 -6 0 -15 5 -20
10 -7 7 -11 6 -11 -3 0 -8 5 -14 11 -15 26 -2 46 -9 53 -17 4 -4 2 -5 -4 -1
-7 4 -13 2 -13 -3 0 -6 5 -11 11 -11 5 0 7 -6 3 -12 -5 -8 0 -7 11 2 11 9 16
10 11 3 -4 -8 -2 -13 4 -13 6 0 8 -4 5 -10 -3 -5 2 -10 12 -10 14 0 15 -2 5
-9 -10 -6 -4 -10 18 -15 29 -5 31 -8 19 -23 -8 -9 -9 -14 -3 -10 7 4 20 -1 31
-11 10 -9 14 -13 7 -9 -7 5 -15 3 -20 -4 -4 -8 -3 -9 4 -5 7 4 12 2 12 -5 0
-6 8 -9 19 -6 13 3 18 0 15 -8 -3 -7 0 -16 7 -21 8 -5 10 -3 5 7 -4 8 0 5 8
-6 9 -11 14 -25 11 -33 -2 -7 -1 -10 5 -7 5 3 18 -4 29 -16 12 -13 25 -18 33
-14 10 6 10 5 1 -5 -9 -10 -7 -17 12 -31 25 -20 40 -25 30 -10 -3 5 -1 12 4
15 4 3 8 -4 7 -17 -1 -21 4 -23 45 -18 5 0 7 5 4 11 -3 5 0 7 9 4 8 -3 12 -13
9 -22 -4 -15 -3 -15 6 -2 6 8 16 15 23 15 7 0 14 10 16 22 2 12 10 27 19 35
15 12 15 10 4 -12 -11 -24 -11 -24 4 -5 8 11 13 26 10 34 -4 10 -2 11 8 3 9
-8 17 -8 27 0 13 8 13 9 0 5 -22 -7 -24 32 -2 41 20 8 29 54 8 46 -7 -3 -13 2
-13 10 0 8 6 12 13 9 6 -2 15 0 18 5 3 5 -2 9 -12 8 -9 0 -16 5 -15 11 2 7
-11 20 -28 28 -18 10 -29 22 -26 30 4 9 -1 11 -14 8 -11 -3 -19 0 -19 6 0 7 5
9 13 5 7 -5 7 -1 -3 12 -22 29 -24 30 -17 12 4 -10 2 -18 -3 -18 -6 0 -10 7
-10 16 0 8 -4 12 -10 9 -5 -3 -10 1 -10 10 0 10 -5 13 -12 9 -8 -5 -9 -2 -5
10 5 13 1 19 -13 23 -11 3 -18 9 -15 13 6 9 -47 50 -64 50 -6 0 -11 5 -11 11
0 5 6 7 13 3 8 -5 8 -2 -2 9 -7 9 -22 17 -33 17 -10 0 -16 5 -13 10 3 6 1 10
-5 10 -6 0 -18 6 -26 14 -11 11 -11 16 -1 19 6 3 1 6 -13 6 -20 1 -22 3 -10
11 12 8 10 10 -10 10 -20 0 -22 2 -10 10 13 8 13 10 -2 10 -10 0 -22 9 -28 20
-6 11 -17 20 -25 20 -8 0 -15 9 -15 20 0 13 -7 20 -20 20 -18 0 -25 11 -21 33
1 5 -3 6 -9 2 -5 -3 -10 -2 -10 3 0 5 -10 8 -22 7 -13 -1 -28 1 -33 6 -13 10
-55 8 -49 -3z m-91 -137 c3 -5 2 -12 -3 -15 -5 -3 -9 1 -9 9 0 17 3 19 12 6z
m505 -177 c0 -1 -6 -6 -12 -10 -7 -4 -10 -4 -6 1 4 4 -3 16 -15 27 l-22 19 28
-17 c15 -9 27 -18 27 -20z m165 -172 c-3 -3 -11 0 -18 7 -9 10 -8 11 6 5 10
-3 15 -9 12 -12z m-195 -182 c0 -5 -2 -10 -4 -10 -3 0 -8 5 -11 10 -3 6 -1 10
4 10 6 0 11 -4 11 -10z m127 -14 c0 -15 -21 -16 -34 -1 -4 4 -3 5 4 1 6 -3 14
-2 18 4 8 14 12 13 12 -4z m-67 -14 c0 -5 -7 -9 -15 -9 -8 0 -12 4 -9 9 3 4 9
8 15 8 5 0 9 -4 9 -8z"/>
<path d="M2150 3921 c0 -7 -5 -9 -12 -5 -7 5 -8 3 -3 -5 5 -9 10 -10 18 -2 6
6 8 14 4 18 -4 3 -7 1 -7 -6z"/>
<path d="M2135 3801 c-3 -5 -2 -12 3 -15 5 -3 9 1 9 9 0 17 -3 19 -12 6z"/>
<path d="M2131 3677 c-8 -10 -7 -14 4 -14 8 0 12 4 9 8 -2 4 2 10 8 12 8 4 9
6 2 6 -6 1 -17 -5 -23 -12z"/>
<path d="M1060 3676 c0 -2 8 -10 18 -17 15 -13 16 -12 3 4 -13 16 -21 21 -21
13z"/>
<path d="M2010 3555 c-7 -9 -10 -18 -6 -22 3 -3 6 -1 6 6 0 7 4 10 8 7 5 -3 9
1 9 9 0 19 -2 19 -17 0z"/>
<path d="M2375 3519 c-11 -17 1 -21 15 -4 8 9 8 15 2 15 -6 0 -14 -5 -17 -11z"/>
<path d="M2316 3462 c-3 -5 1 -9 9 -9 8 0 12 4 9 9 -3 4 -7 8 -9 8 -2 0 -6 -4
-9 -8z"/>
<path d="M1670 3358 c0 -4 4 -8 9 -8 6 0 12 4 15 8 3 5 -1 9 -9 9 -8 0 -15 -4
-15 -9z"/>
<path d="M2475 3250 c-3 -5 -1 -10 4 -10 6 0 11 5 11 10 0 6 -2 10 -4 10 -3 0
-8 -4 -11 -10z"/>
<path d="M1325 3120 c-4 -6 -11 -7 -17 -4 -6 4 -8 2 -4 -4 3 -6 2 -13 -4 -17
-5 -3 -10 2 -11 12 0 10 -3 13 -6 6 -3 -10 -10 -10 -25 -2 -15 8 -19 8 -14 0
4 -6 0 -14 -8 -17 -9 -3 -13 -11 -9 -17 3 -6 1 -7 -6 -3 -9 6 -9 11 -1 21 8
10 8 15 -1 21 -8 5 -9 3 -4 -6 6 -10 3 -12 -14 -7 -18 4 -20 3 -10 -9 10 -12
9 -13 -4 -8 -8 3 -17 0 -20 -8 -2 -7 -3 -5 -2 4 2 10 -2 21 -7 25 -7 3 -8 1
-4 -6 5 -8 0 -10 -18 -7 -15 3 -24 1 -21 -5 4 -5 10 -7 15 -4 5 3 12 0 16 -7
4 -7 4 -10 -1 -6 -4 4 -15 3 -24 -2 -11 -5 -23 -5 -32 2 -11 8 -9 8 6 3 15 -5
17 -3 8 6 -14 14 -36 2 -30 -15 3 -7 -1 -13 -9 -13 -10 0 -12 7 -9 21 5 18 4
19 -5 4 -6 -9 -19 -15 -30 -13 -12 2 -17 -1 -14 -10 3 -7 0 -16 -7 -21 -8 -4
-10 -3 -5 4 4 7 2 12 -4 12 -6 0 -8 5 -5 11 4 6 -2 5 -13 -2 -13 -8 -18 -17
-12 -24 11 -13 -48 -13 -69 0 -10 5 -12 4 -7 -3 4 -7 2 -12 -3 -12 -6 0 -11
-5 -11 -11 0 -8 4 -8 14 0 11 9 16 9 22 0 4 -7 3 -9 -4 -5 -6 3 -13 3 -16 -2
-2 -4 -19 -9 -36 -10 -19 -1 -29 2 -25 8 4 6 -1 7 -11 3 -15 -5 -15 -7 0 -15
26 -15 9 -27 -24 -18 -28 8 -29 7 -19 -12 7 -13 7 -18 1 -14 -6 3 -13 2 -17
-4 -4 -7 -12 -7 -25 0 -14 8 -19 5 -23 -12 -4 -15 -11 -19 -26 -15 -12 3 -19
2 -16 -3 5 -8 -19 -22 -40 -24 -5 -1 -9 -9 -9 -18 1 -10 -1 -17 -5 -16 -3 0
-15 0 -26 -1 -17 -1 -18 -3 -5 -12 12 -9 11 -10 -7 -6 -19 4 -21 2 -13 -13 7
-13 7 -21 0 -25 -10 -6 -14 1 -11 20 1 6 -5 2 -12 -7 -8 -10 -17 -15 -20 -11
-6 6 -11 -11 -9 -28 1 -4 -8 -4 -20 -1 -14 3 -19 1 -14 -6 4 -7 2 -12 -4 -12
-6 0 -9 -4 -6 -9 3 -4 -4 -17 -16 -27 -12 -11 -18 -13 -14 -6 4 7 2 12 -5 12
-7 0 -9 -8 -6 -21 4 -16 3 -18 -9 -8 -11 9 -14 8 -14 -5 0 -11 -5 -14 -12 -10
-8 5 -9 2 -5 -9 6 -16 -7 -22 -38 -18 -5 1 -1 -6 10 -15 20 -15 19 -16 -5 -12
-16 2 -24 -2 -23 -9 2 -7 -2 -13 -8 -13 -5 0 -7 -4 -4 -10 3 -5 1 -10 -5 -10
-6 0 -9 -3 -6 -8 7 -12 -22 -45 -33 -37 -6 3 -11 1 -11 -5 0 -6 -4 -8 -10 -5
-7 4 -7 -2 0 -19 5 -14 6 -25 2 -25 -28 4 -34 -1 -21 -18 13 -15 12 -15 -8 -5
-30 17 -41 15 -17 -2 16 -13 17 -17 5 -28 -10 -9 -12 -9 -7 0 4 6 2 12 -3 12
-6 0 -12 -9 -12 -20 -3 -40 -17 -70 -34 -70 -8 0 -17 -5 -21 -12 -4 -7 -3 -8
4 -4 14 9 16 -6 2 -20 -5 -5 -11 -21 -14 -34 -2 -14 -5 -27 -6 -30 -2 -3 -2
-9 -1 -13 1 -5 -3 -6 -9 -2 -8 5 -7 12 2 23 9 12 6 11 -10 -2 -22 -19 -30 -32
-13 -22 5 3 11 -1 15 -9 3 -8 1 -17 -5 -21 -6 -3 -8 -13 -4 -22 3 -9 3 -13 -1
-10 -4 4 -15 3 -26 -3 -11 -6 -17 -13 -14 -16 3 -4 1 -12 -5 -19 -7 -8 -6 -14
2 -20 8 -4 9 -3 5 4 -4 7 -3 12 2 12 6 0 9 -11 8 -24 -1 -18 -4 -22 -14 -14
-7 6 -15 8 -19 4 -3 -3 -2 -6 4 -6 6 0 14 -7 17 -16 5 -13 4 -14 -7 -6 -10 9
-14 8 -14 -3 0 -8 5 -15 11 -15 5 0 1 -6 -10 -14 -18 -14 -18 -15 -1 -21 13
-6 15 -11 6 -21 -6 -7 -8 -18 -4 -24 3 -5 -4 -14 -17 -19 -15 -7 -17 -10 -7
-10 20 -1 33 -38 14 -38 -7 0 -11 6 -8 14 3 7 1 13 -4 13 -4 0 -8 -27 -8 -59
0 -33 3 -57 7 -55 4 2 10 0 13 -6 4 -6 1 -9 -6 -8 -7 2 -13 -9 -14 -24 -1 -16
3 -28 9 -28 6 0 4 -5 -4 -10 -13 -8 -13 -13 2 -40 12 -20 13 -32 6 -36 -6 -4
-8 -3 -4 4 3 6 2 13 -2 16 -7 4 -9 -112 -3 -168 1 -5 9 -2 19 5 15 12 16 12 5
-2 -10 -12 -10 -18 0 -28 10 -11 7 -11 -13 -1 -20 10 -23 10 -13 0 6 -7 9 -20
5 -29 -5 -14 -3 -14 10 -3 13 10 18 10 24 1 4 -8 3 -9 -4 -5 -8 5 -12 -1 -12
-14 0 -13 -4 -18 -11 -15 -6 4 -5 -2 2 -13 7 -12 18 -18 24 -15 5 3 4 0 -2 -8
-7 -7 -13 -20 -12 -28 0 -11 3 -10 9 4 8 18 9 17 9 -8 1 -20 -3 -26 -11 -21
-10 6 -10 5 -1 -8 7 -8 9 -18 5 -22 -4 -4 0 -6 8 -4 8 1 15 -4 16 -12 3 -37 5
-41 13 -35 5 3 13 0 17 -6 4 -7 3 -9 -3 -6 -6 4 -14 0 -17 -9 -4 -12 -2 -15 9
-10 17 6 20 -5 4 -21 -7 -7 -3 -10 14 -8 18 2 24 -1 22 -13 -1 -10 3 -21 9
-25 7 -6 6 -7 -4 -4 -8 2 -15 9 -15 14 0 6 -3 15 -7 19 -4 3 -5 -4 -3 -17 3
-12 12 -30 21 -38 12 -12 15 -12 9 -2 -6 10 -4 12 4 7 9 -6 9 -11 -1 -24 -11
-13 -11 -14 1 -7 11 6 13 2 9 -17 -3 -15 0 -25 8 -25 7 0 10 7 6 16 -3 9 -2
13 2 10 4 -4 8 -16 11 -27 3 -16 0 -20 -13 -16 -9 3 -7 -1 6 -8 12 -8 19 -17
16 -21 -4 -4 -1 -7 7 -7 8 0 23 -13 34 -28 18 -25 18 -26 0 -12 -17 15 -18 14
-1 -17 17 -35 48 -57 62 -45 5 4 2 -1 -5 -10 -16 -21 -7 -38 19 -33 14 3 17
-1 13 -12 -5 -12 -3 -14 8 -8 12 8 12 6 0 -8 -12 -16 -8 -21 12 -18 4 1 15 -5
23 -14 12 -11 12 -15 2 -15 -7 0 -4 -6 7 -12 29 -17 45 -35 37 -42 -3 -4 2 -4
13 0 18 7 19 6 5 -11 -14 -17 -14 -18 8 -6 18 10 22 9 22 -4 0 -10 -5 -13 -12
-9 -7 4 -5 -2 6 -14 10 -12 23 -19 28 -16 12 8 38 -14 34 -29 -1 -7 -1 -9 1
-4 9 15 23 6 23 -15 0 -16 3 -19 8 -10 6 9 12 6 20 -12 8 -18 17 -24 36 -22
14 2 24 -2 23 -8 -1 -6 4 -10 11 -8 8 1 11 -2 7 -8 -6 -9 7 -14 28 -11 4 0 8
-3 8 -9 1 -5 2 -14 3 -19 2 -18 16 -24 16 -8 0 10 4 17 9 17 6 0 8 -9 6 -19
-2 -12 1 -18 8 -16 15 6 31 -5 45 -30 6 -11 12 -14 12 -7 0 6 7 12 16 12 9 0
12 -5 8 -12 -4 -7 3 -4 16 7 l23 20 -12 -23 c-12 -23 -12 -23 11 -11 21 11 22
11 9 -4 -7 -10 -11 -18 -7 -18 3 -1 9 -2 14 -3 4 -1 14 -5 22 -10 12 -7 13 -6
3 5 -7 7 -13 17 -13 22 0 12 25 -15 33 -37 5 -13 11 -15 20 -8 8 7 18 7 27 2
8 -6 25 -10 38 -10 15 0 21 -4 16 -12 -4 -6 -3 -8 4 -4 5 3 12 3 15 -1 2 -5 2
-3 1 4 -2 7 2 15 8 19 6 4 8 3 4 -4 -3 -6 -2 -13 4 -17 6 -4 7 -11 4 -17 -4
-7 -2 -8 5 -4 6 4 9 11 6 16 -3 5 -2 11 3 14 12 7 63 -39 54 -49 -4 -4 3 -2
15 6 18 11 24 10 39 -2 16 -12 17 -12 12 2 -5 12 -1 15 18 11 13 -2 24 -9 24
-14 0 -6 -7 -8 -15 -4 -22 8 -18 -2 6 -15 12 -6 19 -7 15 -1 -3 5 6 10 19 10
14 0 25 -5 25 -11 0 -6 7 -2 15 9 12 15 14 16 15 3 0 -9 7 -16 15 -16 10 0 12
4 5 11 -11 14 35 14 47 1 5 -4 2 -5 -6 0 -9 5 -12 4 -7 -3 10 -17 26 -15 26 2
0 8 5 18 11 22 8 4 9 -1 5 -17 l-7 -24 19 22 19 22 12 -22 12 -22 -5 23 c-2
12 0 20 5 16 5 -3 9 -11 9 -18 0 -6 11 -12 25 -12 15 0 25 6 25 14 0 11 3 12
13 4 9 -8 20 -8 38 1 30 16 82 20 74 7 -3 -6 -14 -10 -23 -11 -11 0 -12 -2 -4
-6 7 -3 20 1 28 8 22 18 47 20 57 6 6 -8 7 -6 3 5 -4 14 0 17 24 14 21 -2 27
0 23 11 -4 9 -9 10 -18 3 -8 -7 -12 -6 -12 4 0 9 10 12 31 9 17 -2 40 -5 50
-6 11 -1 21 5 23 13 4 13 3 13 -6 0 -7 -9 -11 -10 -11 -3 0 21 18 24 36 6 17
-17 17 -17 12 3 -5 20 -3 21 28 14 24 -6 31 -4 28 5 -3 6 3 18 13 26 16 12 17
12 6 -1 -10 -13 -9 -16 6 -16 12 0 18 7 17 21 -1 24 24 27 42 5 10 -13 11 -12
5 4 -4 11 -2 17 3 13 6 -3 16 -1 24 5 12 8 12 9 -2 4 -10 -3 -18 0 -18 5 0 7
11 9 25 7 18 -4 25 -1 26 11 0 10 2 12 6 4 2 -7 9 -13 14 -13 6 0 7 5 4 10 -3
6 -1 10 5 10 6 0 8 5 5 10 -3 6 1 10 10 10 9 0 13 -5 10 -10 -3 -6 -1 -10 5
-10 8 0 10 9 5 28 -6 26 -6 26 10 7 16 -20 16 -20 12 1 -4 18 -1 21 17 16 11
-3 18 -1 14 3 -9 10 39 48 66 52 12 2 28 11 36 20 14 15 13 16 -3 4 -9 -8 -20
-11 -24 -7 -3 3 -1 6 6 6 7 0 9 5 5 12 -4 6 -3 9 2 6 5 -4 23 0 39 8 17 8 22
12 13 9 -30 -8 -20 5 11 16 20 7 28 15 24 25 -5 13 8 19 31 15 5 -1 4 4 -3 13
-9 11 -9 16 0 22 8 4 9 3 5 -4 -4 -7 -3 -12 3 -12 5 0 13 5 16 10 4 6 11 7 17
4 7 -4 8 -2 4 5 -4 6 -12 8 -18 5 -7 -4 -8 -2 -4 4 4 7 17 12 29 12 18 0 19 2
7 10 -12 8 -10 10 10 10 17 0 21 3 12 9 -10 6 -10 10 2 21 9 7 13 16 10 21 -3
5 0 9 5 9 15 0 14 -13 -1 -29 -7 -8 -1 -6 15 4 15 9 27 19 27 22 0 2 -4 2 -9
-1 -5 -3 -11 0 -14 8 -4 10 1 13 19 11 18 -2 22 1 15 8 -7 7 -5 14 7 23 14 11
14 13 2 14 -8 0 0 9 18 20 36 22 41 36 15 43 -17 4 -17 5 0 6 12 1 16 5 11 14
-6 9 -5 9 8 -1 12 -10 17 -10 27 1 6 8 8 17 3 21 -4 4 1 12 11 17 9 6 15 14
12 20 -13 20 -13 46 1 46 10 0 11 -4 3 -13 -7 -9 -6 -14 3 -20 7 -4 10 -4 6 1
-4 4 -3 15 4 22 9 11 9 17 -3 24 -10 6 -11 9 -1 9 8 0 10 5 6 12 -5 8 -2 8 10
-1 15 -12 17 -12 14 0 -2 8 3 13 11 11 12 -3 12 0 2 12 -8 10 -9 16 -1 21 5 3
10 13 10 21 0 8 -4 13 -8 10 -5 -3 -9 1 -9 8 0 7 7 13 15 12 8 0 16 9 18 22 3
16 0 21 -8 17 -7 -4 -5 0 5 8 18 15 24 32 7 22 -5 -3 -10 -1 -10 6 0 6 8 9 19
6 14 -3 18 -1 14 9 -3 8 -9 12 -13 9 -5 -3 -7 3 -5 12 1 10 9 17 17 15 8 -1
15 4 15 13 0 8 -5 11 -10 8 -6 -3 -7 -1 -3 5 4 7 2 12 -5 12 -7 0 -10 3 -7 6
4 3 17 1 30 -6 l23 -11 -22 19 c-23 20 -20 40 4 21 9 -9 13 -8 13 0 0 6 -4 11
-10 11 -18 0 -11 40 8 41 11 1 9 4 -8 9 -25 8 -25 8 -2 9 17 1 22 5 18 19 -3
9 -2 23 3 31 5 8 7 20 4 28 -4 11 -8 11 -22 1 -14 -11 -14 -11 -4 3 7 9 9 20
5 24 -4 5 -2 5 5 1 6 -3 14 -2 18 4 3 5 -2 10 -12 11 -16 0 -16 1 2 9 14 6 16
9 5 10 -8 2 -19 1 -25 0 -5 -1 -6 2 -2 7 5 4 14 8 20 8 7 0 13 10 13 23 1 12
-3 22 -7 22 -5 0 -9 6 -9 14 0 16 34 31 49 21 5 -3 12 -1 16 5 3 5 11 10 18
10 6 0 1 -7 -11 -16 -12 -8 -22 -21 -22 -27 0 -8 3 -7 9 2 5 8 14 10 21 6 8
-5 11 -4 7 2 -4 6 0 14 9 17 8 3 13 2 10 -3 -3 -5 5 -8 19 -8 14 0 22 3 20 8
-3 4 0 11 6 15 8 4 9 3 5 -4 -4 -6 4 -16 16 -23 21 -11 22 -11 9 5 -12 15 -12
17 0 14 8 -2 20 -10 27 -18 10 -13 11 -10 8 13 -4 24 -3 27 9 17 8 -7 13 -15
11 -19 -3 -4 0 -13 6 -21 8 -13 9 -12 5 2 -8 24 4 30 20 10 14 -16 14 -16 9 2
-5 13 -2 17 9 13 8 -4 17 -2 20 3 4 6 11 10 17 10 5 0 0 -8 -12 -18 -21 -17
-21 -18 -2 -18 11 0 19 3 16 7 -2 4 3 10 12 13 8 3 12 2 9 -4 -8 -12 5 -13 25
0 9 6 20 5 29 -3 11 -9 13 -9 8 0 -4 6 -3 15 3 18 6 4 10 3 9 -2 -4 -22 3 -30
25 -28 40 5 67 16 61 26 -4 5 -1 9 4 9 15 0 14 -13 -1 -29 -11 -10 -7 -10 17
0 17 7 36 18 44 23 11 8 13 8 7 -1 -4 -7 -3 -13 1 -13 5 0 15 6 23 13 8 6 7 2
-3 -9 -17 -21 -17 -21 7 -19 40 5 67 16 61 26 -4 5 -1 9 4 9 15 0 14 -13 -1
-29 -11 -10 -7 -10 17 0 17 7 36 18 44 23 11 8 13 8 8 -1 -5 -8 1 -11 18 -9
14 1 28 6 32 9 3 4 11 7 16 7 5 0 -1 -8 -13 -18 -21 -17 -21 -18 -2 -18 11 0
19 3 16 7 -2 4 3 10 12 13 8 3 13 2 10 -3 -3 -5 5 -9 19 -8 14 0 22 3 20 8 -3
4 0 11 6 15 8 4 9 3 5 -4 -4 -6 4 -16 16 -23 21 -11 22 -11 9 5 -12 15 -12 17
0 14 8 -2 20 -12 27 -23 11 -18 12 -17 8 13 -4 28 -2 31 10 21 7 -6 12 -15 9
-19 -3 -5 -1 -12 5 -15 6 -4 10 -3 9 2 -4 22 3 25 17 7 15 -18 15 -18 10 0 -5
13 -2 17 9 13 8 -4 17 -2 20 3 4 6 11 10 17 10 5 0 0 -9 -13 -21 -13 -11 -18
-18 -11 -14 7 4 21 1 30 -7 15 -11 16 -11 4 3 -10 14 -10 18 3 23 9 3 14 2 11
-3 -3 -5 5 -8 19 -8 14 0 22 3 20 8 -3 4 0 11 6 15 8 4 9 3 5 -4 -4 -6 4 -16
16 -23 21 -11 22 -11 9 5 -12 15 -12 17 0 14 8 -2 20 -12 27 -23 11 -18 12
-17 8 13 -4 28 -2 31 10 21 7 -6 12 -15 9 -19 -3 -5 -1 -12 5 -15 6 -4 10 -3
9 2 -4 22 3 25 17 7 15 -18 15 -18 10 0 -5 13 -2 17 9 13 8 -4 17 -2 20 3 4 6
11 10 17 10 5 0 0 -9 -13 -21 -13 -11 -18 -18 -11 -14 7 4 21 1 30 -7 15 -11
16 -11 4 3 -10 14 -10 18 3 23 9 3 14 2 11 -3 -3 -5 5 -11 18 -13 17 -4 23 -1
19 9 -3 7 -10 10 -17 6 -6 -3 -7 -2 -3 2 10 12 39 16 32 5 -3 -5 3 -14 14 -19
15 -8 23 -7 35 5 9 8 16 12 16 7 0 -4 15 -9 33 -9 17 -1 26 1 20 3 -18 6 -16
20 3 27 8 3 12 2 9 -4 -3 -6 1 -10 10 -10 10 0 15 6 12 13 -3 8 1 14 9 14 7 0
10 -5 7 -10 -3 -6 -1 -7 6 -3 7 4 9 17 6 29 -5 16 -4 18 3 8 7 -9 12 -10 16
-2 4 6 12 8 18 5 7 -5 9 -1 5 9 -4 11 -2 14 9 10 9 -3 14 0 12 8 -2 8 3 13 11
11 8 -2 11 3 8 12 -3 8 2 20 11 28 15 12 16 11 3 -4 -7 -10 -10 -18 -5 -18 5
0 18 13 29 28 14 20 15 23 3 14 -15 -12 -17 -11 -15 7 0 11 5 17 9 15 4 -3 8
-1 8 4 0 5 10 14 23 20 21 11 21 11 -6 7 -15 -2 -25 0 -22 6 4 5 12 9 20 9 8
0 17 5 21 12 4 6 3 8 -4 4 -6 -3 -14 -2 -17 4 -4 6 -3 10 2 9 4 -1 16 -1 26 0
17 1 17 2 3 17 -19 18 -20 30 -4 40 6 4 8 3 4 -4 -3 -6 -2 -13 3 -16 5 -3 11
8 15 25 3 17 10 28 15 24 5 -3 13 0 17 6 4 8 3 9 -4 5 -7 -4 -12 -3 -12 3 0 5
5 13 10 16 8 5 7 12 -2 23 -11 13 -11 14 1 7 11 -6 13 -4 8 7 -3 9 1 24 9 35
9 10 12 11 8 3 -6 -13 -5 -13 7 -1 11 10 11 15 2 18 -7 3 -13 9 -13 14 0 6 4
8 9 4 5 -3 12 -1 16 5 3 5 1 10 -5 10 -6 0 -8 5 -5 10 4 6 10 8 15 5 4 -3 14
3 21 12 10 12 10 14 2 9 -7 -4 -13 -3 -13 3 0 5 4 12 9 16 11 6 7 57 -5 76 -4
8 -3 9 4 5 15 -9 15 -5 2 29 -7 17 -7 24 0 20 6 -3 10 1 10 10 0 10 -5 13 -12
9 -7 -5 -8 -3 -2 7 11 18 13 59 3 59 -5 0 -5 7 -2 17 4 9 2 14 -3 10 -6 -3
-16 -2 -24 4 -13 7 -12 9 3 9 9 0 17 5 17 11 0 5 -5 7 -10 4 -6 -4 -24 8 -41
24 -17 17 -36 28 -42 24 -7 -3 -3 4 8 17 12 14 14 20 5 15 -29 -18 -43 -15
-24 6 10 11 12 19 6 19 -7 0 -12 -4 -12 -9 0 -6 -8 -9 -19 -8 -12 1 -17 7 -13
19 2 10 -1 18 -7 18 -7 0 -10 -4 -6 -9 3 -6 -4 -9 -15 -8 -22 1 -27 13 -7 20
6 2 -7 3 -31 3 -33 -1 -41 -4 -37 -15 5 -12 2 -12 -12 1 -12 10 -34 15 -65 13
-27 -1 -48 2 -48 7 0 5 4 7 8 4 5 -3 9 1 9 9 0 12 -3 12 -14 3 -11 -9 -17 -8
-24 3 -8 10 -9 8 -4 -9 6 -21 5 -22 -14 -10 -12 7 -21 20 -22 28 0 10 -3 8 -8
-5 -5 -11 -6 -24 -3 -30 3 -5 -2 -4 -11 4 -17 14 -24 26 -9 17 5 -3 9 1 9 8 0
7 -6 13 -13 13 -7 0 -11 -4 -8 -9 3 -4 0 -8 -6 -8 -6 0 -9 -4 -6 -9 4 -5 -3
-7 -14 -4 -11 3 -20 9 -20 14 0 5 7 6 15 3 8 -4 15 -1 15 6 0 6 -4 8 -10 5 -5
-3 -10 0 -10 7 0 10 -2 10 -9 -1 -5 -8 -11 -9 -15 -3 -9 16 -45 11 -39 -5 4
-9 0 -11 -11 -7 -10 4 -16 1 -16 -7 0 -7 -3 -9 -6 -6 -4 4 -2 13 5 20 9 11 7
17 -6 28 -11 9 -14 10 -9 2 4 -7 3 -13 -3 -13 -5 0 -13 5 -16 10 -6 10 -34 8
-66 -5 -10 -4 -19 0 -22 9 -7 18 -27 22 -27 5 0 -5 4 -8 8 -5 5 3 9 -1 9 -9 0
-10 -4 -12 -12 -5 -7 6 -15 6 -22 -1 -6 -6 -10 -5 -10 5 0 8 5 12 10 9 6 -3 7
-1 3 6 -4 6 -12 9 -17 6 -5 -4 -9 -1 -9 5 0 6 -5 8 -10 5 -8 -5 -7 -12 2 -22
12 -15 11 -15 -9 -3 -12 8 -19 19 -16 25 3 5 0 5 -7 -2 -10 -9 -16 -8 -29 5
-9 10 -13 13 -8 8 4 -6 6 -19 6 -31 -1 -17 -2 -17 -6 -2 -2 9 -9 14 -15 11 -7
-4 -8 -2 -4 4 4 8 0 12 -11 12 -11 0 -25 6 -32 13 -8 6 -11 7 -8 2 7 -13 -41
-37 -49 -24 -3 5 -10 6 -16 3 -7 -4 -8 -2 -4 5 6 9 11 9 21 1 9 -8 14 -6 19 5
4 10 2 14 -5 9 -6 -4 -15 0 -20 7 -6 10 -9 11 -9 2 0 -7 -5 -13 -11 -13 -5 0
-8 4 -5 8 3 5 -1 9 -9 9 -11 0 -12 -5 -3 -21 9 -18 9 -19 -3 -10 -8 6 -23 10
-34 8 -11 -1 -23 2 -27 9 -5 9 -14 9 -38 0 -16 -6 -28 -8 -26 -5 2 4 -8 18
-22 32 -13 14 -22 19 -18 13 4 -7 2 -13 -4 -13 -6 0 -8 -4 -5 -10 3 -6 -1 -7
-9 -4 -9 3 -13 11 -10 18 3 6 -2 2 -10 -8 -9 -11 -16 -14 -16 -7 0 7 -5 9 -12
5 -7 -4 -8 -3 -4 5 4 6 12 9 17 6 5 -4 9 -1 9 5 0 7 -7 10 -15 6 -8 -3 -19 2
-24 12 -7 11 -11 12 -11 4 0 -7 -5 -10 -10 -7 -6 3 -13 -1 -16 -9 -3 -9 -10
-16 -16 -16 -5 0 -6 5 -3 10 3 6 0 10 -7 10 -10 0 -10 2 -1 8 7 5 -6 8 -32 8
-25 1 -45 -3 -45 -9 0 -5 -9 1 -21 14 -19 23 -20 23 -10 2 7 -14 8 -24 1 -28
-10 -6 -11 -5 -14 14 -2 17 -17 25 -46 26 -22 1 -26 -2 -19 -11 8 -9 5 -11
-10 -7 -12 3 -19 9 -16 12 2 4 -2 8 -10 8 -8 0 -12 -4 -9 -8 2 -4 -1 -11 -7
-15 -8 -4 -9 -3 -5 4 4 7 3 12 -3 12 -6 0 -7 7 -4 17 4 11 3 14 -5 9 -7 -4
-12 -14 -12 -22 0 -8 -5 -12 -10 -9 -6 4 -8 10 -5 15 3 5 0 12 -6 16 -7 4 -9
3 -6 -2 3 -6 2 -16 -4 -24 -7 -12 -9 -10 -9 8 0 19 -2 21 -14 10 -8 -7 -11
-17 -8 -22 3 -5 0 -6 -7 -2 -9 6 -9 11 -1 21 8 10 8 15 -1 21 -7 4 -9 3 -5 -4
3 -5 0 -12 -6 -15 -7 -2 -19 5 -26 17 -12 20 -13 19 -7 -7 5 -27 5 -27 -13
-10 -10 10 -17 21 -15 25 2 4 -8 1 -23 -7 -16 -8 -35 -11 -48 -6 -11 4 -31 6
-43 5 -21 -1 -29 12 -24 40 1 5 -5 4 -13 -4 -17 -13 -22 -25 -8 -16 5 3 9 -1
9 -8 0 -11 -4 -12 -19 -3 -14 9 -20 9 -27 -1 -7 -11 -9 -10 -14 3 -4 9 -3 14
1 11 5 -3 9 1 9 8 0 8 -10 12 -26 10 -14 -1 -31 2 -37 7 -9 7 -17 4 -27 -11
-14 -20 -14 -20 -40 5 -25 26 -25 26 -20 3 4 -18 3 -20 -6 -8 -6 8 -11 11 -11
6 0 -6 -5 -5 -12 2 -14 14 -32 16 -24 4 3 -5 -1 -9 -8 -9 -8 0 -12 9 -10 21 3
12 2 15 -2 8 -3 -6 -10 -10 -15 -7 -5 4 -6 -1 -3 -9 3 -9 1 -16 -5 -16 -6 0
-11 4 -11 9 0 5 -7 8 -15 7 -19 -3 -32 -16 -15 -16 7 0 10 -3 7 -6 -4 -4 -13
-1 -22 6 -12 10 -15 10 -15 0 0 -10 -3 -10 -15 0 -13 11 -14 10 -10 -3 4 -8 1
-18 -6 -23 -7 -4 -10 -3 -6 3 3 5 0 10 -8 10 -10 0 -11 -5 -4 -18 8 -15 6 -17
-7 -12 -12 4 -15 3 -10 -5 4 -7 1 -12 -8 -12 -9 0 -16 -7 -16 -15 0 -8 -5 -15
-11 -15 -5 0 -7 6 -3 13 4 6 -4 2 -18 -11 -24 -22 -35 -57 -14 -45 6 3 1 -5
-12 -19 -17 -19 -20 -28 -11 -33 8 -6 10 -4 4 5 -5 8 -4 11 3 6 15 -9 4 -36
-12 -30 -6 2 -12 -4 -13 -16 -1 -11 3 -20 8 -20 6 0 8 4 5 8 -3 5 1 9 9 9 9 0
11 -5 7 -11 -5 -6 -9 -22 -10 -35 0 -13 -7 -28 -14 -33 -9 -6 -7 -8 8 -4 16 5
20 1 21 -16 0 -32 6 -52 18 -60 6 -5 5 -8 -2 -8 -7 0 -13 -7 -13 -16 0 -14 2
-15 18 -3 15 13 16 12 4 -2 -13 -17 -52 -15 -52 2 0 5 -4 9 -10 9 -5 0 -7 -8
-4 -17 5 -15 3 -15 -10 1 -14 18 -21 15 -17 -7 2 -11 -36 10 -45 25 -4 7 -3 8
4 4 7 -4 12 -2 12 3 0 6 -4 11 -9 11 -5 0 -12 7 -15 16 -3 8 -2 12 4 9 5 -3 7
7 5 25 -2 18 1 30 8 30 7 0 6 4 -3 9 -8 6 -18 7 -22 5 -4 -3 -8 -1 -8 5 0 5 4
12 9 15 5 4 8 14 6 24 -2 15 -9 17 -32 10 -5 -2 -9 2 -10 7 -2 6 1 10 6 10 5
0 13 3 17 8 4 4 2 7 -5 7 -7 0 -9 5 -5 12 4 6 3 8 -4 4 -6 -3 -13 -2 -17 4 -3
5 -1 10 4 10 6 0 11 5 11 11 0 5 -6 7 -12 4 -7 -4 -4 1 7 11 14 11 15 15 4 11
-9 -3 -22 -1 -30 4 -11 7 -10 9 5 9 16 0 17 2 5 17 -8 9 -9 14 -2 10 7 -5 9 0
6 13 -3 11 -10 20 -15 20 -5 0 -6 -4 -3 -10 3 -6 -1 -7 -10 -3 -9 3 -12 9 -7
12 13 8 11 41 -2 41 -6 0 -4 5 4 11 12 8 10 9 -7 4 -19 -5 -22 -3 -16 12 6 16
5 16 -11 4 -15 -12 -17 -12 -14 0 2 8 -3 13 -10 11 -10 -2 -10 2 -1 20 11 21
11 22 -5 9 -15 -12 -16 -12 -9 5 6 16 5 17 -9 6 -11 -9 -18 -10 -23 -2 -3 6
-11 8 -16 4 -5 -3 -9 -2 -8 3 6 34 -2 42 -33 36 -21 -4 -29 -3 -25 5 8 12 -19
10 -30 -3 -4 -4 -2 -5 6 0 10 5 12 4 7 -4 -4 -6 -12 -9 -17 -5 -5 3 -7 10 -4
15 4 5 -2 9 -12 9 -11 0 -24 5 -30 11 -8 8 -13 8 -18 0 -3 -6 -1 -10 6 -9 6 2
14 -4 16 -12 4 -12 3 -12 -5 -2 -5 8 -13 14 -18 15 -5 1 -8 7 -8 13 1 6 -13
10 -33 8 -22 -1 -36 4 -43 15 -14 23 -12 4 2 -22 10 -19 9 -20 -4 -9 -13 10
-17 10 -22 0 -3 -7 -3 -2 1 12 5 22 4 23 -11 11 -9 -7 -16 -10 -16 -6 0 4 -8
1 -17 -6 -9 -8 -14 -9 -10 -3 3 6 -3 18 -14 27 -21 18 -26 9 -6 -12 8 -9 2 -8
-19 2 -17 9 -34 13 -38 10 -3 -4 -6 0 -6 7 0 7 -3 11 -6 8 -3 -4 0 -17 7 -30
11 -20 10 -21 -3 -11 -8 7 -19 9 -23 5 -5 -4 -4 -1 0 7 6 10 4 13 -6 9 -8 -3
-23 -9 -34 -13 -19 -7 -19 -7 -1 7 15 12 16 17 6 23 -9 5 -11 4 -6 -3 4 -7 3
-12 -3 -12 -5 0 -18 -3 -28 -7 -16 -6 -16 -5 -4 10 7 9 11 17 8 17 -3 0 -9 -5
-12 -10z m325 -45 c0 -8 -4 -15 -10 -15 -5 0 -7 7 -4 15 4 8 8 15 10 15 2 0 4
-7 4 -15z m926 -142 c-10 -11 -19 -7 -22 10 -2 15 0 16 12 6 8 -6 12 -14 10
-16z m248 -44 c-3 -5 -10 -7 -15 -3 -5 3 -7 10 -3 15 3 5 10 7 15 3 5 -3 7
-10 3 -15z m-624 -42 c0 -8 -7 -14 -15 -14 -11 0 -12 4 -4 14 6 7 13 13 15 13
2 0 4 -6 4 -13z m1015 2 c4 -5 -2 -6 -12 -2 -16 6 -16 5 -4 -10 18 -23 8 -22
-12 1 -15 17 -15 18 3 19 11 1 22 -2 25 -8z m82 -21 c-3 -8 -6 -5 -6 6 -1 11
2 17 5 13 3 -3 4 -12 1 -19z m655 -85 c11 -14 11 -15 -7 -6 -11 6 -28 9 -38 8
-9 -2 -15 0 -13 4 9 13 45 9 58 -6z m93 -14 c11 -16 1 -19 -13 -3 -7 8 -8 14
-3 14 5 0 13 -5 16 -11z m-2008 -24 c0 -8 -4 -15 -9 -15 -10 0 -11 14 -1 23 9
10 10 9 10 -8z m2340 -37 c-3 -8 -6 -5 -6 6 -1 11 2 17 5 13 3 -3 4 -12 1 -19z
m-2330 -23 c0 -8 -4 -15 -9 -15 -10 0 -11 14 -1 23 9 10 10 9 10 -8z m2533
-350 c-7 -8 -8 -20 -4 -27 5 -9 3 -9 -10 1 -15 13 -16 15 -1 23 8 5 12 14 9
20 -4 7 -2 8 5 4 9 -6 9 -11 1 -21z m-4495 -153 c-3 -3 -11 0 -18 7 -9 10 -8
11 6 5 10 -3 15 -9 12 -12z m4435 -16 c0 -2 -7 -9 -15 -16 -13 -11 -14 -10 -9
4 5 14 24 23 24 12z m-30 -46 c0 -5 -5 -10 -11 -10 -5 0 -7 5 -4 10 3 6 8 10
11 10 2 0 4 -4 4 -10z m-276 -326 c3 -8 2 -12 -4 -9 -6 3 -10 10 -10 16 0 14
7 11 14 -7z m-964 -3 c0 -5 -7 -12 -16 -15 -14 -5 -15 -4 -4 9 14 17 20 19 20
6z m160 0 c0 -5 -7 -12 -16 -15 -14 -5 -15 -4 -4 9 14 17 20 19 20 6z m753
-12 c-8 -8 -13 -7 -18 2 -5 8 -4 10 3 5 7 -4 12 -2 12 5 0 7 3 9 7 6 4 -4 2
-12 -4 -18z m-1383 -59 c0 -5 -7 -7 -15 -4 -8 4 -15 8 -15 10 0 2 7 4 15 4 8
0 15 -4 15 -10z m-2755 -109 c3 -5 2 -12 -3 -15 -5 -3 -9 1 -9 9 0 17 3 19 12
6z m2745 -11 c-6 -11 -13 -20 -16 -20 -2 0 0 9 6 20 6 11 13 20 16 20 2 0 0
-9 -6 -20z m-2695 -240 c3 -6 -1 -7 -9 -4 -18 7 -21 14 -7 14 6 0 13 -4 16
-10z m12 -35 c0 -8 -4 -15 -9 -15 -10 0 -11 14 -1 23 9 10 10 9 10 -8z m2580
-95 c-1 -11 -5 -20 -9 -20 -10 0 -10 4 -2 24 8 22 13 20 11 -4z m-50 -126 c-3
-3 -12 -4 -19 -1 -8 3 -5 6 6 6 11 1 17 -2 13 -5z m-24 -29 c4 -8 3 -16 -1
-19 -4 -3 -9 4 -9 15 -2 23 3 25 10 4z m-2293 -149 c0 -3 -4 -8 -10 -11 -5 -3
-10 -1 -10 4 0 6 5 11 10 11 6 0 10 -2 10 -4z m167 -191 c0 -8 -4 -12 -9 -9
-5 3 -6 10 -3 15 9 13 12 11 12 -6z m498 -285 c3 -6 -1 -7 -9 -4 -18 7 -21 14
-7 14 6 0 13 -4 16 -10z m710 -42 c-25 -15 -47 -19 -39 -7 3 5 9 7 14 4 5 -3
11 -1 15 5 3 5 12 10 18 10 7 0 3 -6 -8 -12z m-432 -29 c-8 -8 -13 -7 -18 2
-5 8 -4 10 3 5 7 -4 12 -2 12 5 0 7 3 9 7 6 4 -4 2 -12 -4 -18z m316 18 c-2
-1 -13 -9 -24 -17 -19 -14 -19 -14 -6 3 7 9 18 17 24 17 6 0 8 -1 6 -3z m-69
-23 c0 -8 -19 -13 -24 -6 -3 5 1 9 9 9 8 0 15 -2 15 -3z"/>
<path d="M1526 3112 c-3 -5 1 -9 9 -9 8 0 12 4 9 9 -3 4 -7 8 -9 8 -2 0 -6 -4
-9 -8z"/>
<path d="M1846 3041 c-3 -5 1 -14 9 -21 10 -9 15 -9 15 -1 0 6 -5 11 -11 11
-5 0 -7 5 -4 10 3 6 4 10 1 10 -3 0 -7 -4 -10 -9z"/>
<path d="M2506 2958 c3 -4 9 -8 15 -8 5 0 9 4 9 8 0 5 -7 9 -15 9 -8 0 -12 -4
-9 -9z"/>
<path d="M736 2948 c3 -5 10 -6 15 -3 13 9 11 12 -6 12 -8 0 -12 -4 -9 -9z"/>
<path d="M2720 2945 c14 -17 13 -18 -5 -11 -15 5 -17 4 -8 -4 7 -8 17 -9 27
-3 13 7 12 10 -7 22 -21 13 -21 13 -7 -4z"/>
<path d="M2765 2920 c3 -5 8 -10 11 -10 2 0 4 5 4 10 0 6 -5 10 -11 10 -5 0
-7 -4 -4 -10z"/>
<path d="M3425 2831 c-9 -16 15 -24 31 -10 11 9 18 8 33 -5 15 -14 18 -14 18
-1 0 8 -3 13 -5 10 -3 -3 -11 0 -19 7 -10 8 -17 8 -25 0 -15 -15 -32 -16 -23
-2 3 6 4 10 1 10 -3 0 -7 -4 -11 -9z"/>
<path d="M440 2729 c0 -5 5 -7 10 -4 6 3 10 8 10 11 0 2 -4 4 -10 4 -5 0 -10
-5 -10 -11z"/>
<path d="M2133 2685 c0 -8 4 -12 9 -9 5 3 6 10 3 15 -9 13 -12 11 -12 -6z"/>
<path d="M2136 2614 c-5 -14 -4 -15 9 -4 17 14 19 20 6 20 -5 0 -12 -7 -15
-16z"/>
<path d="M2066 2593 c-6 -14 -5 -15 5 -6 7 7 10 15 7 18 -3 3 -9 -2 -12 -12z"/>
<path d="M4520 2606 c0 -2 7 -9 15 -16 13 -11 14 -10 9 4 -5 14 -24 23 -24 12z"/>
<path d="M284 2572 c3 -5 0 -13 -6 -15 -9 -4 -10 -6 -1 -6 17 -1 25 16 12 25
-7 4 -9 3 -5 -4z"/>
<path d="M158 2393 c10 -4 10 -8 0 -21 -12 -15 -11 -16 4 -3 19 14 15 32 -5
30 -8 0 -8 -2 1 -6z"/>
<path d="M76 2209 c2 -4 -2 -10 -8 -12 -8 -4 -9 -6 -2 -6 6 -1 17 5 23 12 8
10 7 14 -4 14 -8 0 -12 -4 -9 -8z"/>
<path d="M10 2000 c0 -5 5 -10 10 -10 6 0 10 5 10 10 0 6 -4 10 -10 10 -5 0
-10 -4 -10 -10z"/>
<path d="M2786 1732 c-3 -5 1 -9 9 -9 8 0 15 4 15 9 0 4 -4 8 -9 8 -6 0 -12
-4 -15 -8z"/>
<path d="M3145 1729 c-4 -6 -5 -12 -2 -15 2 -3 7 2 10 11 7 17 1 20 -8 4z"/>
<path d="M3320 1730 c-9 -6 -10 -10 -3 -10 6 0 15 5 18 10 8 12 4 12 -15 0z"/>
<path d="M3480 1730 c-9 -6 -10 -10 -3 -10 6 0 15 5 18 10 8 12 4 12 -15 0z"/>
<path d="M3515 1730 c-3 -5 -1 -10 4 -10 6 0 11 5 11 10 0 6 -2 10 -4 10 -3 0
-8 -4 -11 -10z"/>
<path d="M2183 587 c-18 -20 -18 -20 15 -3 36 18 39 23 17 23 -8 0 -23 -9 -32
-20z"/>
<path d="M1946 447 c3 -10 9 -15 12 -12 3 3 0 11 -7 18 -10 9 -11 8 -5 -6z"/>
<path d="M1054 361 c0 -11 5 -17 13 -14 10 4 11 9 2 19 -15 18 -15 18 -15 -5z"/>
<path d="M1565 329 c-4 -6 -5 -12 -2 -15 2 -3 7 2 10 11 7 17 1 20 -8 4z"/>
</g>
</svg>
